<svg version="1.0" xmlns="http://www.w3.org/2000/svg"
 width="96.000000pt" height="96.000000pt" viewBox="0 0 96.000000 96.000000"
 preserveAspectRatio="xMidYMid meet">

<g transform="translate(0.000000,96.000000) scale(0.100000,-0.100000)"
fill="#000000" stroke="none">
<path d="M381 949 c-131 -26 -266 -130 -327 -254 -201 -407 220 -839 631 -646
187 87 299 298 268 501 -42 271 -301 452 -572 399z m-81 -254 l0 -145 185 0
185 0 0 145 0 145 60 0 60 0 0 -360 0 -360 -60 0 -60 0 0 155 0 155 -185 0
-185 0 0 -155 0 -155 -65 0 -65 0 0 360 0 360 65 0 65 0 0 -145z"/>
</g>
</svg>