<?xml version="1.0" encoding="UTF-8"?>
<svg version="1.1" xmlns="http://www.w3.org/2000/svg" width="32" height="32">
<path d="M0 0 C10.56 0 21.12 0 32 0 C32 10.56 32 21.12 32 32 C21.44 32 10.88 32 0 32 C0 21.44 0 10.88 0 0 Z " fill="#224181" transform="translate(0,0)"/>
<path d="M0 0 C4.29 0 8.58 0 13 0 C13 6 13 6 12.03515625 8.8671875 C10.79442136 12.62216629 10.58642339 16.20940465 10.4375 20.125 C10.26069429 24.22538778 10.00273131 27.98907476 9 32 C6.03 32 3.06 32 0 32 C0 21.44 0 10.88 0 0 Z " fill="#204080" transform="translate(0,0)"/>
<path d="M0 0 C1.98 0 3.96 0 6 0 C6 1.98 6 3.96 6 6 C6.66 6.33 7.32 6.66 8 7 C7.67 8.32 7.34 9.64 7 11 C7.66 11.33 8.32 11.66 9 12 C9 18.6 9 25.2 9 32 C4.71 32 0.42 32 -4 32 C-3.67 25.07 -3.34 18.14 -3 11 C-2.34 11 -1.68 11 -1 11 C-1.33 9.35 -1.66 7.7 -2 6 C-1.34 6 -0.68 6 0 6 C0 4.02 0 2.04 0 0 Z " fill="#E8EBEF" transform="translate(13,0)"/>
</svg>
