<svg version="1.0" xmlns="http://www.w3.org/2000/svg"
 width="272.000000pt" height="270.000000pt" viewBox="0 0 272.000000 270.000000"
 preserveAspectRatio="xMidYMid meet">
<g transform="translate(0.000000,270.000000) scale(0.100000,-0.100000)"
fill="#000000" stroke="none">
<path d="M345 1643 c-127 -28 -198 -109 -197 -228 0 -78 24 -137 75 -180 87
-75 228 -75 313 -1 l39 35 -31 32 -32 32 -36 -28 c-99 -76 -231 -14 -231 108
0 66 29 109 89 132 52 20 108 9 154 -30 l29 -24 32 33 31 32 -22 22 c-45 42
-159 77 -213 65z"/>
<path d="M1225 1632 c-41 -26 -55 -44 -62 -85 -7 -48 15 -85 97 -158 72 -65
84 -91 51 -109 -30 -15 -40 -13 -70 21 l-28 30 -36 -21 c-21 -12 -37 -26 -37
-30 0 -5 12 -23 27 -41 89 -105 253 -60 253 70 0 56 -15 80 -97 156 -61 55
-74 77 -53 90 12 7 67 -20 73 -37 3 -9 17 -1 41 21 l36 35 -23 24 c-46 51
-120 65 -172 34z"/>
<path d="M680 1638 c0 -2 -18 -103 -39 -225 l-38 -223 46 0 47 0 19 113 c10
61 21 115 24 119 4 5 25 -46 46 -112 l39 -120 41 0 41 0 39 120 c21 66 42 117
46 112 3 -4 14 -58 24 -119 l18 -113 47 0 47 0 -34 203 c-45 274 -35 247 -87
247 l-44 0 -47 -140 c-26 -77 -48 -140 -50 -140 -2 0 -24 63 -50 140 l-47 140
-44 0 c-24 0 -44 -1 -44 -2z"/>
<path d="M1667 1516 c-47 -17 -71 -38 -91 -81 -69 -145 82 -286 227 -212 l47
24 0 -33 c0 -46 -43 -93 -92 -101 -53 -8 -103 4 -130 32 -24 25 -58 34 -58 14
0 -6 13 -23 28 -39 72 -72 225 -59 269 23 15 26 19 63 21 205 4 169 3 172 -17
172 -16 0 -21 -6 -21 -27 0 -24 -1 -25 -18 -10 -22 20 -85 47 -109 47 -10 -1
-35 -7 -56 -14z m150 -70 c28 -30 33 -43 33 -86 0 -40 -5 -56 -28 -81 -47 -53
-140 -56 -190 -6 -35 35 -41 110 -12 155 44 71 141 80 197 18z"/>
<path d="M2045 1515 c-139 -49 -154 -239 -24 -306 79 -40 164 -16 217 62 32
45 28 138 -7 187 -41 58 -118 81 -186 57z m121 -50 c80 -52 76 -178 -7 -221
-63 -32 -148 -3 -175 61 -19 46 -18 74 6 113 41 68 115 88 176 47z"/>
<path d="M2290 1511 c0 -13 128 -293 139 -304 6 -6 117 221 149 304 2 5 -6 9
-17 9 -16 0 -28 -15 -51 -67 -17 -38 -41 -90 -54 -118 l-23 -50 -47 100 c-25
55 -50 107 -54 115 -11 18 -42 26 -42 11z"/>
<path d="M1454 1246 c-10 -26 1 -51 23 -54 28 -4 50 32 32 54 -15 18 -48 18
-55 0z"/>
</g>
</svg>
